# xmcd
#
# Track frame offsets: 
#        150
#        15484
#        32482
#        50710
#        67810
#        89167
#        108647
#        127902
#        145720
#        164512
#        184967
#        208825
#        228259
#        249962
#        267810
#        287782
#
# Disc length: 4058 seconds
#
# Revision: 3
# Processed by: cddbd v1.5.2PL0 Copyright (c) Steve Scherf et al.
# Submitted via: ExactAudioCopy v0.99pb3
#
DISCID=e30fd810
DTITLE=Beyond - best of millennium - Disc 2
DYEAR=2000
DGENRE=Pop
TTITLE0=秘密警察
TTITLE1=東方寶藏
TTITLE2=爆烈都市
TTITLE3=亞拉伯跳舞女郎
TTITLE4=歲月無聲
TTITLE5=昔日舞曲
TTITLE6=午夜流浪
TTITLE7=衝開一切
TTITLE8=不再猶豫
TTITLE9=午夜怨曲
TTITLE10=舊日的足跡
TTITLE11=大地
TTITLE12=孤單一吻
TTITLE13=送給不知怎去保護環境的人（包括我）
TTITLE14=俾面派對
TTITLE15=堅持信念
EXTD=YEAR: 2000
EXTT0=
EXTT1=
EXTT2=
EXTT3=
EXTT4=
EXTT5=
EXTT6=
EXTT7=
EXTT8=
EXTT9=
EXTT10=
EXTT11=
EXTT12=
EXTT13=
EXTT14=
EXTT15=
PLAYORDER=
